<?xml version="1.0" encoding="UTF-8" standalone="no"?>
<!-- Created with Inkscape (http://www.inkscape.org/) -->

<svg
   xmlns:dc="http://purl.org/dc/elements/1.1/"
   xmlns:cc="http://creativecommons.org/ns#"
   xmlns:rdf="http://www.w3.org/1999/02/22-rdf-syntax-ns#"
   xmlns:svg="http://www.w3.org/2000/svg"
   xmlns="http://www.w3.org/2000/svg"
   xmlns:sodipodi="http://sodipodi.sourceforge.net/DTD/sodipodi-0.dtd"
   xmlns:inkscape="http://www.inkscape.org/namespaces/inkscape"
   width="26"
   height="26"
   viewBox="0 0 26 26"
   id="svg4311"
   version="1.1"
   inkscape:version="0.91 r13725"
   sodipodi:docname="gplus.svg">
  <defs
     id="defs4313" />
  <sodipodi:namedview
     id="base"
     pagecolor="#ffffff"
     bordercolor="#666666"
     borderopacity="1.0"
     inkscape:pageopacity="0.0"
     inkscape:pageshadow="2"
     inkscape:zoom="1"
     inkscape:cx="71.531529"
     inkscape:cy="6.0857864"
     inkscape:document-units="px"
     inkscape:current-layer="layer1"
     showgrid="false"
     units="px" />
  <metadata
     id="metadata4316">
    <rdf:RDF>
      <cc:Work
         rdf:about="">
        <dc:format>image/svg+xml</dc:format>
        <dc:type
           rdf:resource="http://purl.org/dc/dcmitype/StillImage" />
        <dc:title></dc:title>
      </cc:Work>
    </rdf:RDF>
  </metadata>
  <g
     inkscape:label="Layer 1"
     inkscape:groupmode="layer"
     id="layer1"
     transform="translate(0,-1026.3622)">
    <path
       inkscape:connector-curvature="0"
       id="path3937-6"
       d="m 13,1026.3622 c -7.17974,0 -13,5.8201 -13,13 0,7.1795 5.82026,13 13,13 7.17966,0 13,-5.8206 13,-13 0,-7.1799 -5.82034,-13 -13,-13 z m -1.46875,5 4.125,0 -1.375,0.8438 -1.28125,0 c 0.47847,0.3959 1.46875,1.2258 1.46875,2.8125 0,1.5429 -0.87595,2.2808 -1.75,2.9687 -0.27126,0.2707 -0.5625,0.5714 -0.5625,1.0313 0,0.4579 0.30275,0.7167 0.53125,0.9062 l 0.75,0.5625 c 0.91643,0.772 1.75019,1.4963 1.75,2.9375 0,1.9615 -1.88778,3.9375 -5.46875,3.9375 -3.0198,0 -4.46875,-1.455 -4.46875,-3 0,-0.7507 0.36499,-1.8005 1.59375,-2.5312 1.29016,-0.7931 3.03122,-0.9044 3.96875,-0.9688 -0.29273,-0.3754 -0.625,-0.7599 -0.625,-1.4062 0,-0.3544 0.11571,-0.5618 0.21875,-0.8125 -0.22944,0.021 -0.47916,0.031 -0.6875,0.031 -2.20641,0 -3.4375,-1.6539 -3.4375,-3.2813 0,-0.9586 0.41735,-2.0089 1.3125,-2.7812 1.18769,-0.9805 2.81178,-1.25 3.9375,-1.25 z m -1.5,0.7813 c -0.54308,0 -1.13477,0.2696 -1.46875,0.6875 -0.35433,0.4387 -0.46875,1.0184 -0.46875,1.5625 0,1.3973 0.83358,3.6875 2.625,3.6875 0.52029,0 1.07132,-0.2284 1.40625,-0.5625 0.47884,-0.4817 0.53125,-1.1553 0.53125,-1.5313 0,-1.5028 -0.898,-3.8437 -2.625,-3.8437 z m 7.625,3.8437 1.03125,0 0,2.0625 2.09375,0 0,1.0625 -2.09375,0 0,2.0938 -1.03125,0 0,-2.0938 -2.0625,0 0,-1.0625 2.0625,0 0,-2.0625 z m -6.625,5.4688 c -0.18762,0 -1.31345,0.05 -2.1875,0.3437 -0.45831,0.166 -1.78125,0.6436 -1.78125,2.125 0,1.4817 1.42855,2.5625 3.65625,2.5625 1.99939,0 3.0625,-0.9579 3.0625,-2.25 0,-1.0669 -0.66635,-1.623 -2.25,-2.75 -0.16577,-0.021 -0.29185,-0.031 -0.5,-0.031 z"
       style="fill:#bc5353;fill-opacity:1" />
  </g>
</svg>
