<?xml version="1.0" encoding="UTF-8" standalone="no"?>
<!-- Created with Inkscape (http://www.inkscape.org/) -->

<svg
   xmlns:dc="http://purl.org/dc/elements/1.1/"
   xmlns:cc="http://creativecommons.org/ns#"
   xmlns:rdf="http://www.w3.org/1999/02/22-rdf-syntax-ns#"
   xmlns:svg="http://www.w3.org/2000/svg"
   xmlns="http://www.w3.org/2000/svg"
   xmlns:sodipodi="http://sodipodi.sourceforge.net/DTD/sodipodi-0.dtd"
   xmlns:inkscape="http://www.inkscape.org/namespaces/inkscape"
   width="26"
   height="26"
   viewBox="0 0 26 26"
   id="svg4311"
   version="1.1"
   inkscape:version="0.91 r13725"
   sodipodi:docname="da.svg">
  <defs
     id="defs4313" />
  <sodipodi:namedview
     id="base"
     pagecolor="#ffffff"
     bordercolor="#666666"
     borderopacity="1.0"
     inkscape:pageopacity="0.0"
     inkscape:pageshadow="2"
     inkscape:zoom="1"
     inkscape:cx="71.531529"
     inkscape:cy="-113.91421"
     inkscape:document-units="px"
     inkscape:current-layer="layer1"
     showgrid="false"
     units="px" />
  <metadata
     id="metadata4316">
    <rdf:RDF>
      <cc:Work
         rdf:about="">
        <dc:format>image/svg+xml</dc:format>
        <dc:type
           rdf:resource="http://purl.org/dc/dcmitype/StillImage" />
        <dc:title></dc:title>
      </cc:Work>
    </rdf:RDF>
  </metadata>
  <g
     inkscape:label="Layer 1"
     inkscape:groupmode="layer"
     id="layer1"
     transform="translate(0,-1026.3622)">
    <path
       inkscape:connector-curvature="0"
       id="path3947-7"
       d="m 13,1026.3622 c -7.1797,0 -13,5.8203 -13,13 0,7.1797 5.8203,13 13,13 7.1797,0 13,-5.8203 13,-13 0,-7.1797 -5.8203,-13 -13,-13 z m -3.3125,8.0938 0.78125,1.4687 c 3.90998,-0.8188 10.36781,-0.082 12.53125,3.2188 l -8.9375,2.4687 -2.1875,-4.0625 c 0.43165,-0.063 0.92792,-0.1305 1.375,-0.1562 0.4177,-0.018 0.80255,0 1.1875,0.031 l 1.1875,2 3.03125,-0.7188 c -1.9165,-1.9603 -5.02928,-1.9052 -7.53125,-1.5 l 2.40625,4.5625 -8.9375,2.5 C 4.26476,1043.6557 4.04819,1042.9029 4,1042.1747 c -0.16449,-2.4884 1.53934,-4.5619 4.28125,-5.6875 l -0.71875,-1.5 c 0.6878,-0.2234 1.39051,-0.4021 2.125,-0.5313 z m -0.75,3.4375 c -1.2707,0.6973 -1.99551,1.8344 -1.6875,3.5625 l 3.03125,-0.7188 -1.34375,-2.8437 z"
       style="fill:#8d9d72;fill-opacity:1;fill-rule:evenodd;stroke:none" />
  </g>
</svg>
