<?xml version="1.0" encoding="UTF-8" standalone="no"?>
<!-- Created with Inkscape (http://www.inkscape.org/) -->

<svg
   xmlns:dc="http://purl.org/dc/elements/1.1/"
   xmlns:cc="http://creativecommons.org/ns#"
   xmlns:rdf="http://www.w3.org/1999/02/22-rdf-syntax-ns#"
   xmlns:svg="http://www.w3.org/2000/svg"
   xmlns="http://www.w3.org/2000/svg"
   xmlns:sodipodi="http://sodipodi.sourceforge.net/DTD/sodipodi-0.dtd"
   xmlns:inkscape="http://www.inkscape.org/namespaces/inkscape"
   width="26"
   height="26"
   viewBox="0 0 26 26"
   id="svg4311"
   version="1.1"
   inkscape:version="0.91 r13725"
   sodipodi:docname="ubuntu.svg">
  <defs
     id="defs4313" />
  <sodipodi:namedview
     id="base"
     pagecolor="#ffffff"
     bordercolor="#666666"
     borderopacity="1.0"
     inkscape:pageopacity="0.0"
     inkscape:pageshadow="2"
     inkscape:zoom="15.610742"
     inkscape:cx="12.399601"
     inkscape:cy="12.981243"
     inkscape:document-units="px"
     inkscape:current-layer="layer1"
     showgrid="false"
     units="px" />
  <metadata
     id="metadata4316">
    <rdf:RDF>
      <cc:Work
         rdf:about="">
        <dc:format>image/svg+xml</dc:format>
        <dc:type
           rdf:resource="http://purl.org/dc/dcmitype/StillImage" />
        <dc:title></dc:title>
      </cc:Work>
    </rdf:RDF>
  </metadata>
  <g
     inkscape:label="Layer 1"
     inkscape:groupmode="layer"
     id="layer1"
     transform="translate(0,-1026.3622)">
    <path
       style="fill:#ca6f45;fill-opacity:1"
       d="m 13.00119,1026.3622 c -7.1798099,0 -13.00118985,5.8215 -13.00118985,13.0012 0,7.1793 5.82131005,12.9988 13.00118985,12.9988 7.17974,0 12.99881,-5.8195 12.99881,-12.9988 0,-7.1797 -5.81899,-13.0012 -12.99881,-13.0012 z m 4.38071,3.6092 c 0.30692,-0.01 0.61991,0.067 0.90528,0.2317 0.83025,0.4795 1.11485,1.5417 0.63537,2.3719 -0.47894,0.8301 -1.53933,1.1124 -2.3695,0.633 -0.82963,-0.479 -1.11423,-1.5398 -0.63537,-2.3695 0.31476,-0.5448 0.87828,-0.8538 1.46422,-0.8671 z m -4.38071,1.8512 c 0.69794,0 1.37215,0.098 2.0136,0.2747 0.11313,0.6974 0.52712,1.3389 1.18714,1.7198 0.65887,0.3798 1.42053,0.4189 2.08048,0.1695 1.28335,1.2621 2.11883,2.9776 2.24051,4.8895 l -2.47221,0.036 c -0.22808,-2.5897 -2.40103,-4.6195 -5.04952,-4.6195 -0.76297,0 -1.48663,0.1686 -2.13541,0.4705 l -1.2062499,-2.1593 c 1.0071899,-0.4985 2.1418599,-0.7811 3.3416599,-0.7811 z m -4.1824498,1.2659 1.2683498,2.1259 c -1.3035999,0.9176 -2.1569099,2.4338 -2.1569099,4.149 0,1.7153 0.85331,3.2296 2.1569099,4.1466 l -1.2683498,2.1259 c -1.5191501,-1.0151 -2.6505901,-2.5659 -3.1195201,-4.3831 0.54789,-0.4471 0.89812,-1.1293 0.89812,-1.8918 0,-0.7629 -0.35023,-1.4423 -0.89812,-1.8894 0.46954,-1.8166 1.60098,-3.368 3.1195201,-4.3831 z m -4.6577801,4.5384 c 0.9585,0 1.73651,0.7775 1.73651,1.7365 0,0.9585 -0.77801,1.7341 -1.73651,1.7341 -0.95904,0 -1.73652,-0.7756 -1.73652,-1.7341 0,-0.959 0.77748,-1.7365 1.73652,-1.7365 z m 13.8873599,2.1856 2.4746,0.036 c -0.12168,1.9118 -0.95716,3.6273 -2.24051,4.8894 -0.65995,-0.2493 -1.42115,-0.2108 -2.08048,0.1696 -0.65987,0.3816 -1.07401,1.0224 -1.18714,1.7198 -0.64137,0.1776 -1.31566,0.2747 -2.0136,0.2747 -1.19988,0 -2.33447,-0.2819 -3.3416599,-0.7811 l 1.2062499,-2.1616 c 0.64871,0.3018 1.37244,0.4729 2.13541,0.4729 2.64857,0 4.81959,-2.0292 5.04713,-4.6196 z m -0.67358,5.4699 c 0.6153,-0.016 1.21854,0.2967 1.54781,0.867 0.47948,0.8303 0.19472,1.8906 -0.63537,2.3695 -0.83016,0.4795 -1.89055,0.1972 -2.3695,-0.6329 -0.47955,-0.8298 -0.19479,-1.8925 0.63537,-2.3719 0.25924,-0.1497 0.542,-0.2245 0.82169,-0.2317 z"
       id="path4763-0-0"
       inkscape:connector-curvature="0"
       inkscape:export-xdpi="90"
       inkscape:export-ydpi="90" />
  </g>
</svg>
